<svg width="58" height="58" viewBox="0 0 58 58" fill="none" xmlns="http://www.w3.org/2000/svg">
<g clip-path="url(#clip0_9_145)">
<path fill-rule="evenodd" clip-rule="evenodd" d="M28.8301 57.26C13.0435 57.26 0.200195 44.4167 0.200195 28.6301C0.200195 12.8435 13.0435 0.000244141 28.8301 0.000244141C44.6166 0.000244141 57.4599 12.8435 57.4599 28.6301C57.4599 44.4167 44.6166 57.26 28.8301 57.26ZM43.6771 38.6876C44.03 38.6876 44.3174 38.4004 44.3174 38.0473V20.0735L29.7508 31.6408C29.4813 31.855 29.1555 31.962 28.8299 31.962C28.5044 31.962 28.1787 31.8549 27.9091 31.6408L13.3426 20.0735V38.0473C13.3426 38.4004 13.6299 38.6876 13.9829 38.6876H43.6771ZM41.4449 18.5726L28.8301 28.5903L16.2151 18.5726H41.4449ZM47.2791 19.2129V38.0475C47.2791 40.0336 45.6632 41.6495 43.6771 41.6495H13.9829C11.9967 41.6495 10.381 40.0336 10.381 38.0475V19.2129C10.381 17.2268 11.9968 15.611 13.9829 15.611H43.6771C45.6632 15.6109 47.2791 17.2268 47.2791 19.2129Z" fill="#131313"/>
</g>
<defs>
<clipPath id="clip0_9_145">
<rect width="57.2597" height="57.2597" fill="white" transform="translate(0.200195 0.000244141)"/>
</clipPath>
</defs>
</svg>
