<svg width="58" height="58" viewBox="0 0 58 58" fill="none" xmlns="http://www.w3.org/2000/svg">
<g clip-path="url(#clip0_251_9)">
<path d="M32.5625 28.8012C32.5459 29.6678 32.2711 30.51 31.773 31.2209C31.2748 31.9319 30.5758 32.4797 29.7645 32.7949C28.9531 33.1101 28.066 33.1785 27.2155 32.9914C26.3651 32.8043 25.5896 32.3702 24.9874 31.744C24.3851 31.1179 23.9833 30.3279 23.8328 29.4742C23.6823 28.6205 23.7898 27.7416 24.1419 26.9488C24.4939 26.1561 25.0745 25.4852 25.8102 25.0211C26.5458 24.5571 27.4034 24.3209 28.2741 24.3424C29.4311 24.3851 30.526 24.8744 31.3266 25.7068C32.1271 26.5392 32.5704 27.6491 32.5625 28.8012Z" fill="#131313"/>
<path d="M35.7309 15.0964H20.8178C19.3422 15.0964 17.927 15.6798 16.8835 16.7181C15.8401 17.7564 15.2539 19.1646 15.2539 20.6331V35.8068C15.2539 36.5338 15.3978 37.2538 15.6774 37.9255C15.957 38.5973 16.3669 39.2076 16.8835 39.7217C17.4002 40.2359 18.0135 40.6437 18.6886 40.9219C19.3636 41.2002 20.0871 41.3434 20.8178 41.3434H35.7309C36.4615 41.3434 37.185 41.2002 37.8601 40.9219C38.5351 40.6437 39.1485 40.2359 39.6651 39.7217C40.1818 39.2076 40.5916 38.5973 40.8712 37.9255C41.1509 37.2538 41.2948 36.5338 41.2948 35.8068V20.6604C41.2977 19.9312 41.1559 19.2087 40.8777 18.5341C40.5994 17.8595 40.1901 17.2462 39.6733 16.7293C39.1564 16.2125 38.5421 15.8022 37.8656 15.522C37.1891 15.2418 36.4637 15.0971 35.7309 15.0964ZM28.273 36.2226C26.7967 36.2557 25.3439 35.8504 24.1002 35.0584C22.8564 34.2663 21.8779 33.1235 21.2898 31.7757C20.7016 30.4278 20.5303 28.9362 20.7978 27.4911C21.0653 26.046 21.7594 24.7129 22.7916 23.6621C23.8237 22.6113 25.1471 21.8903 26.5929 21.5912C28.0386 21.2921 29.5412 21.4285 30.9087 21.9829C32.2762 22.5373 33.4467 23.4846 34.2709 24.7039C35.095 25.9231 35.5353 27.3591 35.5357 28.8286C35.5477 29.7889 35.3692 30.7421 35.0106 31.6337C34.6519 32.5252 34.12 33.3377 33.4454 34.0245C32.7708 34.7113 31.9667 35.2589 31.0792 35.6361C30.1916 36.0133 29.238 36.2126 28.273 36.2226ZM36.3439 21.4373C36.1625 21.4373 35.9829 21.4013 35.8157 21.3314C35.6484 21.2616 35.4969 21.1592 35.3699 21.0303C35.2429 20.9014 35.1431 20.7485 35.0762 20.5808C35.0093 20.413 34.9768 20.2336 34.9804 20.0531C34.9804 19.686 35.127 19.334 35.3878 19.0744C35.6487 18.8148 36.0025 18.669 36.3714 18.669C36.7403 18.669 37.0941 18.8148 37.355 19.0744C37.6158 19.334 37.7624 19.686 37.7624 20.0531C37.7678 20.2485 37.7308 20.4428 37.6538 20.6227C37.5768 20.8025 37.4616 20.9637 37.3162 21.0951C37.1708 21.2266 36.9986 21.3252 36.8113 21.3843C36.624 21.4433 36.4261 21.4614 36.2312 21.4373H36.3439Z" fill="#131313"/>
<path d="M29.0515 0.781604C21.5554 0.744123 14.3513 3.68602 9.02423 8.96011C3.69713 14.2342 0.683342 21.4085 0.645862 28.9046C0.608381 36.4008 3.55028 43.6049 8.82437 48.932C14.0985 54.2591 21.2727 57.2729 28.7689 57.3103C32.4806 57.3289 36.1597 56.6162 39.596 55.2129C43.0323 53.8096 46.1585 51.7433 48.7962 49.1318C51.4339 46.5204 53.5315 43.4149 54.969 39.9928C56.4066 36.5707 57.156 32.899 57.1746 29.1873C57.1932 25.4756 56.4804 21.7965 55.0772 18.3602C53.6739 14.9239 51.6075 11.7977 48.9961 9.15997C46.3846 6.52226 43.2792 4.42475 39.8571 2.98718C36.435 1.54962 32.7633 0.800162 29.0515 0.781604ZM46.2165 36.683C46.2244 37.951 45.9805 39.208 45.4989 40.3811C45.0174 41.5542 44.3078 42.62 43.4113 43.5168C42.5148 44.4135 41.4491 45.1234 40.2762 45.6053C39.1033 46.0872 37.8464 46.3315 36.5783 46.324H21.5304C20.2624 46.3319 19.0054 46.088 17.8323 45.6064C16.6592 45.1249 15.5934 44.4153 14.6966 43.5188C13.7999 42.6222 13.09 41.5566 12.6081 40.3837C12.1262 39.2108 11.8819 37.9539 11.8894 36.6858V21.6351C11.8815 20.367 12.1254 19.11 12.607 17.937C13.0885 16.7639 13.7981 15.6981 14.6946 14.8013C15.5912 13.9045 16.6568 13.1946 17.8297 12.7127C19.0026 12.2308 20.2595 11.9866 21.5276 11.9941H36.5783C37.8461 11.9866 39.1028 12.2308 40.2756 12.7125C41.4483 13.1942 42.5138 13.9038 43.4103 14.8003C44.3068 15.6968 45.0164 16.7623 45.4981 17.935C45.9798 19.1077 46.224 20.3644 46.2165 21.6322V36.683Z" fill="#131313"/>
</g>
<defs>
<clipPath id="clip0_251_9">
<rect width="57.26" height="57.26" fill="white"/>
</clipPath>
</defs>
</svg>
