<svg width="58" height="58" viewBox="0 0 58 58" fill="none" xmlns="http://www.w3.org/2000/svg">
<g clip-path="url(#clip0_9_159)">
<path d="M48.8712 8.38268C37.6889 -2.79627 19.5614 -2.79359 8.38244 8.38883C-2.79651 19.5713 -2.79383 37.6987 8.38859 48.8776C19.571 60.0566 37.6984 60.0539 48.8774 48.8715C54.2461 43.501 57.2614 36.2177 57.2598 28.624C57.2582 21.0315 54.2408 13.7506 48.8712 8.38268ZM43.359 39.8813C43.3577 39.8826 43.3565 39.8839 43.3552 39.8851V39.8756L41.9045 41.3166C40.0285 43.2164 37.2962 43.998 34.6993 43.378C32.0829 42.6777 29.5957 41.5629 27.3319 40.076C25.2288 38.7319 23.2797 37.1606 21.5201 35.3903C19.901 33.7831 18.4465 32.0183 17.1778 30.1224C15.7902 28.0823 14.6919 25.8599 13.914 23.5184C13.0224 20.7677 13.7613 17.7493 15.8227 15.7215L17.5214 14.0229C17.9937 13.5485 18.7611 13.5468 19.2354 14.0191C19.2366 14.0203 19.238 14.0215 19.2392 14.0229L24.6025 19.3862C25.0769 19.8584 25.0786 20.6259 24.6063 21.1002C24.6051 21.1014 24.6038 21.1026 24.6025 21.104L21.4532 24.2532C20.5496 25.147 20.4359 26.5673 21.186 27.5934C22.3251 29.1567 23.5856 30.6276 24.9557 31.9929C26.4832 33.5271 28.1439 34.9227 29.9181 36.1634C30.9433 36.8784 32.3332 36.7579 33.2201 35.8771L36.2643 32.7851C36.7366 32.3106 37.504 32.309 37.9783 32.7812C37.9796 32.7825 37.9808 32.7837 37.9821 32.7851L43.355 38.1675C43.8296 38.6396 43.8312 39.4069 43.359 39.8813Z" fill="#131313"/>
</g>
<defs>
<clipPath id="clip0_9_159">
<rect width="57.2597" height="57.2597" fill="white" transform="translate(0 0.000244141)"/>
</clipPath>
</defs>
</svg>
