<svg width="58" height="58" viewBox="0 0 58 58" fill="none" xmlns="http://www.w3.org/2000/svg">
<path d="M28.8594 57.26C44.6712 57.26 57.4892 44.4419 57.4892 28.63C57.4892 12.8181 44.6712 0 28.8594 0C13.0475 0 0.229492 12.8181 0.229492 28.63C0.229492 44.4419 13.0475 57.26 28.8594 57.26Z" fill="#C9C8C9"/>
<path fill-rule="evenodd" clip-rule="evenodd" d="M13.1907 28.3247L29.887 21.1328C37.8379 17.8258 39.4899 17.2513 40.5668 17.2324C40.8036 17.2282 41.3332 17.2869 41.6762 17.5652C41.9659 17.8002 42.0455 18.1178 42.0837 18.3405C42.1219 18.5633 42.1693 19.071 42.1315 19.4676C41.7007 23.9946 39.8364 34.9808 38.8879 40.0511C38.4865 42.1967 37.6969 42.916 36.9313 42.9864C35.2687 43.1394 34.0062 41.8876 32.3959 40.832L26.0066 36.5402C23.18 34.6776 25.0124 33.6538 26.6233 31.9806C27.0449 31.5426 34.3703 24.8796 34.512 24.2751C34.5292 24.1996 34.5462 23.9178 34.3788 23.769C34.2114 23.6201 33.9643 23.6716 33.786 23.7115C33.5333 23.7689 29.5079 26.4295 21.7098 31.6936C20.5672 32.4782 19.5322 32.8605 18.605 32.8405C17.5828 32.8184 15.6164 32.2625 14.1546 31.7873C12.3616 31.2045 10.9366 30.8963 11.0608 29.9065C11.1254 29.391 11.8354 28.8637 13.1907 28.3247Z" fill="#7A2E2F"/>
</svg>
