<svg width="58" height="58" viewBox="0 0 58 58" fill="none" xmlns="http://www.w3.org/2000/svg">
<path d="M28.8594 57.26C44.6712 57.26 57.4892 44.4419 57.4892 28.63C57.4892 12.8181 44.6712 0 28.8594 0C13.0475 0 0.229492 12.8181 0.229492 28.63C0.229492 44.4419 13.0475 57.26 28.8594 57.26Z" fill="#131313"/>
<path fill-rule="evenodd" clip-rule="evenodd" d="M13.1902 28.3247L29.8865 21.1328C37.8374 17.8258 39.4894 17.2513 40.5663 17.2324C40.8032 17.2282 41.3327 17.2869 41.6757 17.5652C41.9654 17.8002 42.045 18.1178 42.0832 18.3405C42.1214 18.5633 42.1688 19.071 42.1311 19.4676C41.7002 23.9946 39.8359 34.9808 38.8874 40.0511C38.486 42.1967 37.6964 42.916 36.9309 42.9864C35.2683 43.1394 34.0057 41.8876 32.3954 40.832L26.0062 36.5402C23.1795 34.6776 25.0119 33.6538 26.6228 31.9806C27.0444 31.5426 34.3698 24.8796 34.5115 24.2751C34.5287 24.1996 34.5457 23.9178 34.3783 23.769C34.211 23.6201 33.9638 23.6716 33.7855 23.7115C33.5328 23.7689 29.5074 26.4295 21.7093 31.6936C20.5667 32.4782 19.5317 32.8605 18.6045 32.8405C17.5823 32.8184 15.6159 32.2625 14.1541 31.7873C12.3612 31.2045 10.9361 30.8963 11.0603 29.9065C11.1249 29.391 11.8349 28.8637 13.1902 28.3247Z" fill="#7A2E2F"/>
</svg>
